# xmcd
#
# Track frame offsets: 
#        150
#        22907
#        40685
#        54025
#        67515
#        78340
#        90395
#        103055
#        115897
#        131004
#        148547
#        162859
#
# Disc length: 2395 seconds
#
# Revision: 0
# Processed by: cddbd v1.5.1PL2 Copyright (c) Steve Scherf et al.
# Submitted via: ExactAudioCopy v0.95b4
#
DISCID=8509590c
DTITLE=ชุดที่ 1 - ชัวร์ ชะชะช่า 
DYEAR=2001
DGENRE=Country
TTITLE0=แอบฝัน-รักดียวใจเดียว
TTITLE1=ฉันทนาที่รัก
TTITLE2=จ้างก็ไม่เชื่อ-เชื่อผมเถอะน่า
TTITLE3=รักน้องพร
TTITLE4=รายงานหัวใจ
TTITLE5=ห้องนอนคนจน
TTITLE6=รักก็ช้ำเลิกก็ช้ำ
TTITLE7=ไอ้หวังตายแน่
TTITLE8=คนละที-คนละที
TTITLE9=เขามีอะไรกันแล้ว
TTITLE10=ถึวเวลาจะบอกรัก
TTITLE11=รักเพราะรอยยิ้ม
EXTD=
EXTT0=
EXTT1=
EXTT2=
EXTT3=
EXTT4=
EXTT5=
EXTT6=
EXTT7=
EXTT8=
EXTT9=
EXTT10=
EXTT11=
PLAYORDER=
